<svg width="18" height="18" viewBox="0 0 18 18" fill="none" xmlns="http://www.w3.org/2000/svg">
<path fill-rule="evenodd" clip-rule="evenodd" d="M9 12.3762C10.864 12.3762 12.375 10.8652 12.375 9.00124C12.375 7.13726 10.864 5.62622 9 5.62622C7.13604 5.62622 5.625 7.13726 5.625 9.00124C5.625 10.8652 7.13604 12.3762 9 12.3762ZM9 10.8775C7.9638 10.8775 7.12374 10.0374 7.12374 9.00124C7.12374 7.96496 7.9638 7.12496 9 7.12496C10.0362 7.12496 10.8763 7.96496 10.8763 9.00124C10.8763 10.0374 10.0362 10.8775 9 10.8775Z" fill="#256FFF"/>
<path fill-rule="evenodd" clip-rule="evenodd" d="M8.25 0.75C8.25 0.335786 8.58578 0 9 0C9.41422 0 9.75 0.335786 9.75 0.75V1.53703C13.2933 1.88883 16.1112 4.70669 16.4629 8.25H17.25C17.6642 8.25 18 8.58578 18 9C18 9.41422 17.6642 9.75 17.25 9.75H16.4629C16.1112 13.2933 13.2933 16.1112 9.75 16.4629V17.25C9.75 17.6642 9.41422 18 9 18C8.58578 18 8.25 17.6642 8.25 17.25V16.4629C4.70669 16.1112 1.88883 13.2933 1.53703 9.75H0.75C0.335786 9.75 0 9.41422 0 9C-8.94067e-08 8.58578 0.335786 8.25 0.75 8.25H1.53703C1.88883 4.70669 4.70669 1.88883 8.25 1.53703V0.75ZM9 15.0012C5.68562 15.0012 2.99879 12.3144 2.99879 9C2.99879 5.68562 5.68562 2.99879 9 2.99879C12.3144 2.99879 15.0012 5.68562 15.0012 9C15.0012 12.3144 12.3144 15.0012 9 15.0012Z" fill="#256FFF"/>
</svg>
