<svg width="18" height="16" viewBox="0 0 18 16" fill="none" xmlns="http://www.w3.org/2000/svg">
<path d="M1.79988 0.5C1.20788 0.5 0.71995 1.0083 0.71995 1.625V7.32031C0.721356 7.34375 0.725575 7.36719 0.731199 7.39062C0.731199 7.39502 0.731199 7.39795 0.731199 7.40234C0.569492 7.66748 0.437313 7.9502 0.337477 8.25781C0.113898 8.94482 0.01828 9.73291 0 10.625V11C0 11.0117 0 11.0234 0 11.0352V15.5H2.51982V14C2.51982 13.688 2.59294 13.5254 2.68856 13.4258C2.78418 13.3262 2.94026 13.25 3.23978 13.25H14.759C15.0585 13.25 15.2146 13.3262 15.3102 13.4258C15.4058 13.5254 15.4789 13.688 15.4789 14V15.5H17.9988V11.0586C18.0002 11.0396 18.0002 11.019 17.9988 11C17.9988 10.8711 18.0016 10.7495 17.9988 10.625C17.9805 9.73291 17.8849 8.94482 17.6613 8.25781C17.5614 7.95312 17.4279 7.67627 17.2676 7.41406C17.2746 7.3833 17.2788 7.35254 17.2788 7.32031V1.625C17.2788 1.0083 16.7909 0.5 16.1989 0.5H1.79988ZM1.79988 1.25H16.1989C16.4014 1.25 16.5589 1.41406 16.5589 1.625V6.55859C16.4703 6.48096 16.3761 6.40625 16.2776 6.33594C16.0372 6.16309 15.7756 6.00195 15.4789 5.86719V4.25C15.4789 3.98633 15.313 3.78125 15.1302 3.65234C14.9474 3.52344 14.7238 3.43408 14.444 3.35938C13.8843 3.20996 13.0983 3.125 12.0592 3.125C11.02 3.125 10.234 3.20996 9.67433 3.35938C9.40154 3.43262 9.17936 3.51611 8.99938 3.64062C8.81939 3.51611 8.59722 3.43262 8.32442 3.35938C7.76477 3.20996 6.97873 3.125 5.93959 3.125C4.90044 3.125 4.1144 3.20996 3.55475 3.35938C3.27493 3.43408 3.05135 3.52344 2.86855 3.65234C2.68575 3.78125 2.51982 3.98633 2.51982 4.25V5.86719C2.22313 6.00195 1.96158 6.16309 1.72113 6.33594C1.6227 6.40625 1.52849 6.48096 1.4399 6.55859V1.625C1.4399 1.41406 1.59739 1.25 1.79988 1.25ZM5.93959 3.875C6.94077 3.875 7.68322 3.96289 8.14443 4.08594C8.37504 4.14746 8.53394 4.22217 8.60565 4.27344C8.63518 4.29395 8.63659 4.29688 8.6394 4.29688V5C6.27285 5.01611 4.52078 5.20068 3.23978 5.60938V4.29688C3.24259 4.29688 3.24399 4.29395 3.27352 4.27344C3.34524 4.22217 3.50413 4.14746 3.73474 4.08594C4.19596 3.96289 4.93841 3.875 5.93959 3.875ZM12.0592 3.875C13.0603 3.875 13.8028 3.96289 14.264 4.08594C14.4946 4.14746 14.6535 4.22217 14.7252 4.27344C14.7548 4.29395 14.7562 4.29688 14.759 4.29688V5.60938C13.478 5.20068 11.7259 5.01611 9.35935 5V4.29688C9.36216 4.29688 9.36357 4.29395 9.3931 4.27344C9.46481 4.22217 9.62371 4.14746 9.85432 4.08594C10.3155 3.96289 11.058 3.875 12.0592 3.875ZM8.93188 5.75C8.96985 5.75586 9.00641 5.75586 9.04437 5.75C9.05562 5.75 9.06687 5.75 9.07812 5.75C12.6807 5.75586 14.7618 6.14844 15.8726 6.94531C16.4323 7.34668 16.7712 7.84473 16.9863 8.50391C17.1733 9.07812 17.2493 9.78564 17.2676 10.625H0.731199C0.749479 9.78564 0.825412 9.07812 1.01243 8.50391C1.22757 7.84473 1.56645 7.34668 2.1261 6.94531C3.23696 6.14697 5.32229 5.75439 8.93188 5.75ZM0.71995 11.375H17.2788V14.75H16.1989V14C16.1989 13.562 16.092 13.1621 15.8277 12.8867C15.5633 12.6113 15.1794 12.5 14.759 12.5H3.23978C2.81934 12.5 2.43546 12.6113 2.1711 12.8867C1.90674 13.1621 1.79988 13.562 1.79988 14V14.75H0.71995V11.375Z" fill="#999999"/>
</svg>
