<svg width="26" height="18" viewBox="0 0 26 18" fill="none" xmlns="http://www.w3.org/2000/svg">
<path d="M12.2903 0.440269C12.1866 0.340141 12.1866 0.177188 12.2903 0.0750961C12.3941 -0.025032 12.5629 -0.025032 12.6687 0.0750961C13.2282 0.615003 13.0146 0.997846 12.7684 1.44351C12.5935 1.75961 12.392 2.12085 12.7115 2.65487C12.7847 2.77856 12.742 2.93562 12.6138 3.0063C12.4856 3.07698 12.3229 3.03575 12.2496 2.91206C11.7817 2.13067 12.0584 1.63395 12.2985 1.20007C12.4429 0.938947 12.5711 0.711204 12.2903 0.440269ZM2.02013 10.8222H4.31098C4.30895 10.5454 4.30081 10.3333 4.29674 10.1507C4.2764 9.45573 4.26419 9.10823 4.49816 8.85496C4.75044 8.58206 5.0902 8.59384 5.77379 8.61544C5.99555 8.62329 6.26614 8.63115 6.6527 8.63115C6.86022 8.63115 7.02705 8.79214 7.02705 8.99239C7.02705 9.19265 6.86022 9.35364 6.6527 9.35364C6.32921 9.35364 6.01183 9.34382 5.74938 9.33401C5.29975 9.3183 5.07596 9.31241 5.05561 9.33401C5.01899 9.37327 5.02713 9.62654 5.04137 10.1291C5.04747 10.3333 5.05561 10.5709 5.05765 10.8202H9.3118V9.39094C9.3118 9.2378 9.47863 9.11215 9.68615 9.11215C9.89367 9.11215 10.0605 9.23584 10.0605 9.39094V10.8202H14.3146C14.3187 10.5709 14.3248 10.3353 14.3309 10.1291C14.3472 9.62654 14.3533 9.37327 14.3167 9.33401C14.2963 9.31241 14.0725 9.32026 13.6229 9.33401C13.3625 9.34186 13.0431 9.35364 12.7196 9.35364C12.5121 9.35364 12.3452 9.19265 12.3452 8.99239C12.3452 8.79214 12.5121 8.63115 12.7196 8.63115C13.1082 8.63115 13.3767 8.62133 13.5985 8.61544C14.2821 8.59188 14.6219 8.58206 14.8741 8.85496C15.1061 9.10823 15.0959 9.45573 15.0756 10.1507C15.0694 10.3333 15.0633 10.5454 15.0613 10.8222H20.4263C20.7294 10.8222 21.0041 10.9419 21.2035 11.1343C21.2116 11.1422 21.2198 11.1501 21.2259 11.1579C21.411 11.3483 21.5249 11.6036 21.5249 11.8843V12.8679C22.2838 12.8738 22.8982 13.4707 22.8982 14.2049C22.8982 14.9392 22.2838 15.5361 21.5249 15.542V16.4097C21.5249 16.7003 21.4008 16.9653 21.2014 17.1577C21.0021 17.3501 20.7274 17.4679 20.4263 17.4679H18.6542V17.8449C18.6542 17.9313 18.4874 18 18.2799 18C18.0724 18 17.9055 17.9313 17.9055 17.8449V17.4679H3.93867V17.8449C3.93867 17.9313 3.77184 18 3.56432 18C3.3568 18 3.18997 17.9313 3.18997 17.8449V17.4679H2.02013C1.71902 17.4679 1.44437 17.3482 1.24295 17.1558C1.04357 16.9653 0.919464 16.7003 0.919464 16.4078V11.8843C0.919464 11.5938 1.04357 11.3287 1.24295 11.1363C1.44233 10.9419 1.71699 10.8222 2.02013 10.8222ZM20.4283 11.5447H2.02013C1.92451 11.5447 1.83499 11.5839 1.77192 11.6448C1.70885 11.7057 1.66816 11.7921 1.66816 11.8843V16.4078C1.66816 16.5 1.70885 16.5864 1.77192 16.6473C1.83499 16.7082 1.92248 16.7455 2.02013 16.7455H20.4304C20.528 16.7455 20.6155 16.7082 20.6786 16.6473L20.6806 16.6453C20.7437 16.5845 20.7823 16.5 20.7823 16.4058V11.8843C20.7823 11.7979 20.7478 11.7174 20.6928 11.6566C20.6888 11.6527 20.6826 11.6487 20.6786 11.6448C20.6135 11.5839 20.526 11.5447 20.4283 11.5447ZM25.065 4.55927H20.819C20.4833 4.55927 20.1903 4.74971 20.052 5.02261H16.6767L16.7886 4.44932C16.8191 4.28833 16.7093 4.13323 16.5445 4.10378C16.5262 4.09986 16.5058 4.09789 16.4875 4.09789H3.66401C3.49515 4.09789 3.3568 4.2314 3.3568 4.39435C3.3568 4.42773 3.3629 4.4611 3.37308 4.49055L3.83288 6.1731C3.96715 6.66 4.19095 7.12137 4.52868 7.44728C4.83589 7.74374 5.22651 7.92829 5.71683 7.92829H14.5649C15.0654 7.92829 15.4804 7.73784 15.7978 7.43157C16.1355 7.10566 16.3573 6.64822 16.4549 6.15346L16.5343 5.7451H20.052C20.1923 6.018 20.4833 6.20844 20.819 6.20844H25.065C25.5349 6.20844 25.9195 5.83737 25.9195 5.38385C25.9195 4.93033 25.5349 4.55927 25.065 4.55927ZM15.8527 6.04352C15.7795 6.4244 15.6127 6.76994 15.3645 7.01143C15.1569 7.21168 14.8904 7.33537 14.5669 7.33537H5.71683C5.40758 7.33537 5.15734 7.21757 4.96203 7.02909C4.70771 6.78368 4.53275 6.41851 4.42492 6.02389L4.06074 4.69277H16.1172C16.0277 5.14433 15.9423 5.59 15.8527 6.04352ZM7.0535 0.440269C6.94974 0.340141 6.94974 0.177188 7.0535 0.0750961C7.15726 -0.025032 7.32612 -0.025032 7.43192 0.0750961C7.9914 0.615003 7.77778 0.997846 7.52957 1.44351C7.3546 1.75961 7.15319 2.12085 7.47261 2.65487C7.54585 2.77856 7.50312 2.93562 7.37495 3.0063C7.24678 3.07698 7.08401 3.03575 7.01077 2.91206C6.54284 2.13067 6.81953 1.63395 7.0596 1.20007C7.20609 0.938947 7.33426 0.711204 7.0535 0.440269ZM8.7991 0.440269C8.69534 0.340141 8.69534 0.177188 8.7991 0.0750961C8.90286 -0.025032 9.07173 -0.025032 9.17752 0.0750961C9.73701 0.615003 9.52339 0.997846 9.27721 1.44351C9.10224 1.75961 8.90083 2.12281 9.22025 2.65683C9.29349 2.78052 9.24873 2.93758 9.12259 3.00826C8.99442 3.07894 8.83165 3.03575 8.75841 2.91402C8.29048 2.13263 8.56717 1.63788 8.80724 1.20399C8.95169 0.938947 9.07986 0.711204 8.7991 0.440269ZM10.5447 0.440269C10.4409 0.340141 10.4409 0.177188 10.5447 0.0750961C10.6485 -0.025032 10.8173 -0.025032 10.9231 0.0750961C11.4826 0.615003 11.269 0.999809 11.0228 1.44351C10.8478 1.75961 10.6464 2.12281 10.9659 2.65683C11.0391 2.78052 10.9943 2.93758 10.8682 3.00826C10.74 3.07894 10.5773 3.03575 10.504 2.91402C10.0361 2.13263 10.3128 1.63788 10.5528 1.20399C10.6973 0.938947 10.8255 0.711204 10.5447 0.440269Z" fill="#999999"/>
</svg>
