<svg width="25" height="18" viewBox="0 0 25 18" fill="none" xmlns="http://www.w3.org/2000/svg">
<path d="M11.3708 0.440269C11.2671 0.340141 11.2671 0.177188 11.3708 0.0750961C11.4746 -0.025032 11.6435 -0.025032 11.7493 0.0750961C12.3088 0.615003 12.0951 0.997846 11.849 1.44351C11.674 1.75961 11.4726 2.12085 11.792 2.65487C11.8652 2.77856 11.8225 2.93562 11.6943 3.0063C11.5662 3.07698 11.4034 3.03575 11.3302 2.91206C10.8622 2.13067 11.1389 1.63395 11.379 1.20007C11.5234 0.938947 11.6516 0.711204 11.3708 0.440269ZM1.10067 10.8222H3.39152C3.38949 10.5454 3.38135 10.3333 3.37728 10.1507C3.35693 9.45573 3.34473 9.10823 3.57869 8.85496C3.83097 8.58206 4.17074 8.59384 4.85433 8.61544C5.07609 8.62329 5.34668 8.63115 5.73324 8.63115C5.94076 8.63115 6.10758 8.79214 6.10758 8.99239C6.10758 9.19265 5.94076 9.35364 5.73324 9.35364C5.40975 9.35364 5.09237 9.34382 4.82992 9.33401C4.38029 9.3183 4.15649 9.31241 4.13615 9.33401C4.09953 9.37327 4.10767 9.62654 4.12191 10.1291C4.12801 10.3333 4.13615 10.5709 4.13818 10.8202H8.39233V9.39094C8.39233 9.2378 8.55916 9.11215 8.76668 9.11215C8.9742 9.11215 9.14103 9.23584 9.14103 9.39094V10.8202H13.3952C13.3993 10.5709 13.4054 10.3353 13.4115 10.1291C13.4277 9.62654 13.4338 9.37327 13.3972 9.33401C13.3769 9.31241 13.1531 9.32026 12.7035 9.33401C12.443 9.34186 12.1236 9.35364 11.8001 9.35364C11.5926 9.35364 11.4258 9.19265 11.4258 8.99239C11.4258 8.79214 11.5926 8.63115 11.8001 8.63115C12.1887 8.63115 12.4573 8.62133 12.679 8.61544C13.3626 8.59188 13.7024 8.58206 13.9547 8.85496C14.1866 9.10823 14.1764 9.45573 14.1561 10.1507C14.15 10.3333 14.1439 10.5454 14.1418 10.8222H19.5068C19.81 10.8222 20.0846 10.9419 20.284 11.1343C20.2922 11.1422 20.3003 11.1501 20.3064 11.1579C20.4915 11.3483 20.6055 11.6036 20.6055 11.8843V12.8679C21.3643 12.8738 21.9788 13.4707 21.9788 14.2049C21.9788 14.9392 21.3643 15.5361 20.6055 15.542V16.4097C20.6055 16.7003 20.4814 16.9653 20.282 17.1577C20.0826 17.3501 19.8079 17.4679 19.5068 17.4679H17.7348V17.8449C17.7348 17.9313 17.568 18 17.3604 18C17.1529 18 16.9861 17.9313 16.9861 17.8449V17.4679H3.01921V17.8449C3.01921 17.9313 2.85238 18 2.64486 18C2.43734 18 2.27051 17.9313 2.27051 17.8449V17.4679H1.10067C0.79956 17.4679 0.524902 17.3482 0.323486 17.1558C0.124105 16.9653 0 16.7003 0 16.4078V11.8843C0 11.5938 0.124105 11.3287 0.323486 11.1363C0.522868 10.9419 0.797526 10.8222 1.10067 10.8222ZM19.5089 11.5447H1.10067C1.00505 11.5447 0.915527 11.5839 0.852458 11.6448C0.789388 11.7057 0.748698 11.7921 0.748698 11.8843V16.4078C0.748698 16.5 0.789388 16.5864 0.852458 16.6473C0.915527 16.7082 1.00301 16.7455 1.10067 16.7455H19.5109C19.6086 16.7455 19.696 16.7082 19.7591 16.6473L19.7611 16.6453C19.8242 16.5845 19.8629 16.5 19.8629 16.4058V11.8843C19.8629 11.7979 19.8283 11.7174 19.7734 11.6566C19.7693 11.6527 19.7632 11.6487 19.7591 11.6448C19.694 11.5839 19.6065 11.5447 19.5089 11.5447ZM24.1455 4.55927H19.8995C19.5638 4.55927 19.2708 4.74971 19.1325 5.02261H15.7572L15.8691 4.44932C15.8997 4.28833 15.7898 4.13323 15.625 4.10378C15.6067 4.09986 15.5863 4.09789 15.568 4.09789H2.74455C2.57568 4.09789 2.43734 4.2314 2.43734 4.39435C2.43734 4.42773 2.44344 4.4611 2.45361 4.49055L2.91341 6.1731C3.04769 6.66 3.27148 7.12137 3.60921 7.44728C3.91642 7.74374 4.30705 7.92829 4.79736 7.92829H13.6454C14.1459 7.92829 14.561 7.73784 14.8783 7.43157C15.2161 7.10566 15.4378 6.64822 15.5355 6.15346L15.6148 5.7451H19.1325C19.2729 6.018 19.5638 6.20844 19.8995 6.20844H24.1455C24.6155 6.20844 25 5.83737 25 5.38385C25 4.93033 24.6155 4.55927 24.1455 4.55927ZM14.9333 6.04352C14.86 6.4244 14.6932 6.76994 14.445 7.01143C14.2375 7.21168 13.9709 7.33537 13.6475 7.33537H4.79736C4.48812 7.33537 4.23787 7.21757 4.04256 7.02909C3.78825 6.78368 3.61328 6.41851 3.50545 6.02389L3.14128 4.69277H15.1978C15.1082 5.14433 15.0228 5.59 14.9333 6.04352ZM6.13403 0.440269C6.03027 0.340141 6.03027 0.177188 6.13403 0.0750961C6.23779 -0.025032 6.40666 -0.025032 6.51245 0.0750961C7.07194 0.615003 6.85832 0.997846 6.61011 1.44351C6.43514 1.75961 6.23372 2.12085 6.55314 2.65487C6.62638 2.77856 6.58366 2.93562 6.45548 3.0063C6.32731 3.07698 6.16455 3.03575 6.09131 2.91206C5.62337 2.13067 5.90006 1.63395 6.14014 1.20007C6.28662 0.938947 6.41479 0.711204 6.13403 0.440269ZM7.87964 0.440269C7.77588 0.340141 7.77588 0.177188 7.87964 0.0750961C7.9834 -0.025032 8.15226 -0.025032 8.25806 0.0750961C8.81755 0.615003 8.60392 0.997846 8.35775 1.44351C8.18278 1.75961 7.98136 2.12281 8.30078 2.65683C8.37402 2.78052 8.32926 2.93758 8.20312 3.00826C8.07495 3.07894 7.91219 3.03575 7.83895 2.91402C7.37101 2.13263 7.64771 1.63788 7.88778 1.20399C8.03223 0.938947 8.1604 0.711204 7.87964 0.440269ZM9.62524 0.440269C9.52148 0.340141 9.52148 0.177188 9.62524 0.0750961C9.729 -0.025032 9.89787 -0.025032 10.0037 0.0750961C10.5632 0.615003 10.3495 0.999809 10.1034 1.44351C9.92839 1.75961 9.72697 2.12281 10.0464 2.65683C10.1196 2.78052 10.0749 2.93758 9.94873 3.00826C9.82056 3.07894 9.6578 3.03575 9.58455 2.91402C9.11662 2.13263 9.39331 1.63788 9.63338 1.20399C9.77783 0.938947 9.90601 0.711204 9.62524 0.440269Z" fill="black" fill-opacity="0.4"/>
</svg>
